<svg xmlns="http://www.w3.org/2000/svg" viewBox="-20 0 80 60" width="80" height="60">
  
  <circle id="terminal_1" cx="0" cy="0" r="2.5" fill="#1e293b" />
  <circle id="terminal_2" cx="0" cy="60" r="2.5" fill="#1e293b" />
  <circle id="terminal_3" cx="40" cy="0" r="2.5" fill="#1e293b" />
  <circle id="terminal_4" cx="40" cy="60" r="2.5" fill="#1e293b" />
  <line x1="0" y1="33" x2="40" y2="33" stroke="#94a3b8" stroke-width="1.2" stroke-dasharray="3 2" stroke-linecap="round" />
  <g stroke="#1e293b" stroke-width="1.8" stroke-linecap="round" stroke-linejoin="round" fill="none">
    
    <!-- Polo 1 (Fase) -->
    <line x1="0" y1="0" x2="0" y2="22" />
    <line x1="0" y1="44" x2="0" y2="60" />
    <!-- Línea horizontal de seccionador -->
    <line x1="-3.5" y1="22" x2="3.5" y2="22" />
    <!-- Cuchilla móvil -->
    <line x1="0" y1="44" x2="0" y2="22" />
    <line x1="-2.5" y1="13.5" x2="2.5" y2="18.5" />
    <line x1="2.5" y1="13.5" x2="-2.5" y2="18.5" />
    <!-- Bimetálico escalonado exacto Radica -->
    <path d="M0.00,31.85 L-3.32,32.71 L-4.24,29.40 L-7.56,30.26 L-6.65,33.57 L-9.97,34.43" stroke-width="1.8" />
    <!-- Disparo magnético: flecha Radica -->
    <line x1="0.00" y1="36.61" x2="-4.45" y2="37.64" stroke-width="1.8" />
    <path d="M-4.87,35.91 L-10.37,39.05 L-4.05,39.45 Z" fill="#0f172a" stroke="none" />
    <!-- Polo 2 (Fase) -->
    <line x1="40" y1="0" x2="40" y2="22" />
    <line x1="40" y1="44" x2="40" y2="60" />
    <!-- Línea horizontal de seccionador -->
    <line x1="36.5" y1="22" x2="43.5" y2="22" />
    <!-- Cuchilla móvil -->
    <line x1="40" y1="44" x2="40" y2="22" />
    <line x1="37.5" y1="13.5" x2="42.5" y2="18.5" />
    <line x1="42.5" y1="13.5" x2="37.5" y2="18.5" />
    <!-- Bimetálico escalonado exacto Radica -->
    <path d="M40.00,31.85 L36.68,32.71 L35.76,29.40 L32.44,30.26 L33.35,33.57 L30.03,34.43" stroke-width="1.8" />
    <!-- Disparo magnético: flecha Radica -->
    <line x1="40.00" y1="36.61" x2="35.55" y2="37.64" stroke-width="1.8" />
    <path d="M35.13,35.91 L29.63,39.05 L35.95,39.45 Z" fill="#0f172a" stroke="none" />
  </g>
</svg>
