<svg xmlns="http://www.w3.org/2000/svg" viewBox="-123.0 -75.0 170.0 80.0" width="170.0" height="80.0">
  <title>Conmutador multiposición, de contacto móvil sobre varios contactos</title>
  <line x1="0" y1="-40" x2="0" y2="-60" stroke="black" stroke-width="1" fill="none" stroke-linecap="round" stroke-linejoin="round"/>
  <line x1="-20" y1="-40" x2="-20" y2="-60" stroke="black" stroke-width="1" fill="none" stroke-linecap="round" stroke-linejoin="round"/>
  <line x1="-40" y1="-40" x2="-40" y2="-60" stroke="black" stroke-width="1" fill="none" stroke-linecap="round" stroke-linejoin="round"/>
  <line x1="-60" y1="-40" x2="-60" y2="-60" stroke="black" stroke-width="1" fill="none" stroke-linecap="round" stroke-linejoin="round"/>
  <line x1="-80" y1="-60" x2="-80" y2="-40" stroke="black" stroke-width="1" fill="none" stroke-linecap="round" stroke-linejoin="round"/>
  <line x1="-100" y1="-60" x2="-100" y2="-40" stroke="black" stroke-width="1" fill="none" stroke-linecap="round" stroke-linejoin="round"/>
  <line x1="-100" y1="-35" x2="-95" y2="-35" stroke="black" stroke-width="1" fill="none" stroke-linecap="round" stroke-linejoin="round"/>
  <line x1="-100" y1="-35" x2="-100" y2="-10" stroke="black" stroke-width="1" fill="none" stroke-linecap="round" stroke-linejoin="round"/>
  <polyline points="-120,0 -120,-20 40,-20" stroke="black" stroke-width="1" fill="none" stroke-linecap="round" stroke-linejoin="round"/>
  <polyline points="-100,-35 -70,-35 -70,-25 -50,-25 -50,-35 -30,-35" stroke="black" stroke-width="1" fill="none" stroke-linecap="round" stroke-linejoin="round"/>
  <line x1="20" y1="-40" x2="20" y2="-60" stroke="black" stroke-width="1" fill="none" stroke-linecap="round" stroke-linejoin="round"/>
  <line x1="40" y1="-40" x2="40" y2="-60" stroke="black" stroke-width="1" fill="none" stroke-linecap="round" stroke-linejoin="round"/>
</svg>